<svg width="76" height="75" viewBox="0 0 76 75" fill="none" xmlns="http://www.w3.org/2000/svg">
<path d="M12.8837 0.581398H15.8605V3.55814H12.8837V0.581398ZM15.8605 0.581398H18.8372V3.55814H15.8605V0.581398ZM15.8605 3.55814H18.8372V6.53488H15.8605V3.55814ZM12.8837 3.55814H15.8605V6.53488H12.8837V3.55814ZM9.90698 6.53488H12.8837V9.51163H9.90698V6.53488ZM6.93023 6.53488H9.90698V9.51163H6.93023V6.53488ZM3.95349 9.51163H6.93023V12.4884H3.95349V9.51163ZM6.93023 9.51163H9.90698V12.4884H6.93023V9.51163ZM21.814 0.581398H24.7907V3.55814H21.814V0.581398ZM18.8372 0.581398H21.814V3.55814H18.8372V0.581398ZM18.8372 3.55814H21.814V6.53488H18.8372V3.55814ZM21.814 3.55814H24.7907V6.53488H21.814V3.55814ZM24.7907 0.581398H27.7674V3.55814H24.7907V0.581398ZM27.7674 3.55814H30.7442V6.53488H27.7674V3.55814ZM24.7907 3.55814H27.7674V6.53488H24.7907V3.55814ZM30.7442 6.53488H33.7209V9.51163H30.7442V6.53488ZM33.7209 9.51163H36.6977V12.4884H33.7209V9.51163ZM30.7442 9.51163H33.7209V12.4884H30.7442V9.51163ZM27.7674 9.51163H30.7442V12.4884H27.7674V9.51163ZM24.7907 9.51163H27.7674V12.4884H24.7907V9.51163ZM21.814 9.51163H24.7907V12.4884H21.814V9.51163ZM18.8372 6.53488H21.814V9.51163H18.8372V6.53488ZM21.814 6.53488H24.7907V9.51163H21.814V6.53488ZM24.7907 6.53488H27.7674V9.51163H24.7907V6.53488ZM27.7674 6.53488H30.7442V9.51163H27.7674V6.53488ZM42.6512 6.53488H45.6279V9.51163H42.6512V6.53488ZM45.6279 6.53488H48.6047V9.51163H45.6279V6.53488ZM42.6512 9.51163H45.6279V12.4884H42.6512V9.51163ZM48.6047 3.55814H51.5814V6.53488H48.6047V3.55814ZM48.6047 0.581398H51.5814V3.55814H48.6047V0.581398ZM51.5814 0.581398H54.5581V3.55814H51.5814V0.581398ZM51.5814 3.55814H54.5581V6.53488H51.5814V3.55814ZM36.6977 12.4884H39.6744V15.4651H36.6977V12.4884ZM39.6744 12.4884H42.6512V15.4651H39.6744V12.4884ZM39.6744 15.4651H42.6512V18.4419H39.6744V15.4651ZM45.6279 18.4419H48.6047V21.4186H45.6279V18.4419ZM45.6279 21.4186H48.6047V24.3953H45.6279V21.4186ZM42.6512 21.4186H45.6279V24.3953H42.6512V21.4186ZM42.6512 24.3953H45.6279V27.3721H42.6512V24.3953ZM42.6512 27.3721H45.6279V30.3488H42.6512V27.3721ZM42.6512 30.3488H45.6279V33.3256H42.6512V30.3488ZM42.6512 33.3256H45.6279V36.3023H42.6512V33.3256ZM42.6512 36.3023H45.6279V39.2791H42.6512V36.3023ZM45.6279 36.3023H48.6047V39.2791H45.6279V36.3023ZM45.6279 33.3256H48.6047V36.3023H45.6279V33.3256ZM45.6279 30.3488H48.6047V33.3256H45.6279V30.3488ZM45.6279 27.3721H48.6047V30.3488H45.6279V27.3721ZM45.6279 24.3953H48.6047V27.3721H45.6279V24.3953ZM33.7209 12.4884H36.6977V15.4651H33.7209V12.4884ZM33.7209 15.4651H36.6977V18.4419H33.7209V15.4651ZM33.7209 18.4419H36.6977V21.4186H33.7209V18.4419ZM33.7209 21.4186H36.6977V24.3953H33.7209V21.4186ZM33.7209 24.3953H36.6977V27.3721H33.7209V24.3953ZM33.7209 27.3721H36.6977V30.3488H33.7209V27.3721ZM33.7209 30.3488H36.6977V33.3256H33.7209V30.3488ZM33.7209 33.3256H36.6977V36.3023H33.7209V33.3256ZM33.7209 36.3023H36.6977V39.2791H33.7209V36.3023ZM30.7442 36.3023H33.7209V39.2791H30.7442V36.3023ZM30.7442 33.3256H33.7209V36.3023H30.7442V33.3256ZM30.7442 30.3488H33.7209V33.3256H30.7442V30.3488ZM30.7442 27.3721H33.7209V30.3488H30.7442V27.3721ZM30.7442 24.3953H33.7209V27.3721H30.7442V24.3953ZM30.7442 21.4186H33.7209V24.3953H30.7442V21.4186ZM30.7442 18.4419H33.7209V21.4186H30.7442V18.4419ZM30.7442 15.4651H33.7209V18.4419H30.7442V15.4651ZM30.7442 12.4884H33.7209V15.4651H30.7442V12.4884ZM27.7674 12.4884H30.7442V15.4651H27.7674V12.4884ZM24.7907 12.4884H27.7674V15.4651H24.7907V12.4884ZM24.7907 15.4651H27.7674V18.4419H24.7907V15.4651ZM24.7907 18.4419H27.7674V21.4186H24.7907V18.4419ZM24.7907 21.4186H27.7674V24.3953H24.7907V21.4186ZM24.7907 24.3953H27.7674V27.3721H24.7907V24.3953ZM24.7907 27.3721H27.7674V30.3488H24.7907V27.3721ZM24.7907 30.3488H27.7674V33.3256H24.7907V30.3488ZM24.7907 33.3256H27.7674V36.3023H24.7907V33.3256ZM24.7907 36.3023H27.7674V39.2791H24.7907V36.3023ZM24.7907 39.2791H27.7674V42.2558H24.7907V39.2791ZM27.7674 36.3023H30.7442V39.2791H27.7674V36.3023ZM27.7674 33.3256H30.7442V36.3023H27.7674V33.3256ZM27.7674 30.3488H30.7442V33.3256H27.7674V30.3488ZM27.7674 27.3721H30.7442V30.3488H27.7674V27.3721ZM27.7674 21.4186H30.7442V24.3953H27.7674V21.4186ZM27.7674 18.4419H30.7442V21.4186H27.7674V18.4419ZM27.7674 15.4651H30.7442V18.4419H27.7674V15.4651ZM27.7674 24.3953H30.7442V27.3721H27.7674V24.3953ZM21.814 24.3953H24.7907V27.3721H21.814V24.3953ZM18.8372 24.3953H21.814V27.3721H18.8372V24.3953ZM15.8605 24.3953H18.8372V27.3721H15.8605V24.3953ZM12.8837 24.3953H15.8605V27.3721H12.8837V24.3953ZM12.8837 27.3721H15.8605V30.3488H12.8837V27.3721ZM15.8605 27.3721H18.8372V30.3488H15.8605V27.3721ZM18.8372 27.3721H21.814V30.3488H18.8372V27.3721ZM21.814 27.3721H24.7907V30.3488H21.814V27.3721ZM21.814 36.3023H24.7907V39.2791H21.814V36.3023ZM18.8372 36.3023H21.814V39.2791H18.8372V36.3023ZM15.8605 36.3023H18.8372V39.2791H15.8605V36.3023ZM12.8837 36.3023H15.8605V39.2791H12.8837V36.3023ZM12.8837 39.2791H15.8605V42.2558H12.8837V39.2791ZM15.8605 39.2791H18.8372V42.2558H15.8605V39.2791ZM18.8372 39.2791H21.814V42.2558H18.8372V39.2791ZM21.814 39.2791H24.7907V42.2558H21.814V39.2791ZM27.7674 39.2791H30.7442V42.2558H27.7674V39.2791ZM30.7442 39.2791H33.7209V42.2558H30.7442V39.2791ZM33.7209 39.2791H36.6977V42.2558H33.7209V39.2791ZM42.6512 39.2791H45.6279V42.2558H42.6512V39.2791ZM45.6279 39.2791H48.6047V42.2558H45.6279V39.2791ZM24.7907 42.2558H27.7674V45.2326H24.7907V42.2558ZM24.7907 45.2326H27.7674V48.2093H24.7907V45.2326ZM27.7674 45.2326H30.7442V48.2093H27.7674V45.2326ZM30.7442 45.2326H33.7209V48.2093H30.7442V45.2326ZM33.7209 45.2326H36.6977V48.2093H33.7209V45.2326ZM33.7209 42.2558H36.6977V45.2326H33.7209V42.2558ZM30.7442 42.2558H33.7209V45.2326H30.7442V42.2558ZM27.7674 42.2558H30.7442V45.2326H27.7674V42.2558ZM42.6512 42.2558H45.6279V45.2326H42.6512V42.2558ZM45.6279 42.2558H48.6047V45.2326H45.6279V42.2558ZM45.6279 45.2326H48.6047V48.2093H45.6279V45.2326ZM42.6512 45.2326H45.6279V48.2093H42.6512V45.2326ZM54.5581 0.581398H57.5349V3.55814H54.5581V0.581398ZM57.5349 0.581398H60.5116V3.55814H57.5349V0.581398ZM57.5349 3.55814H60.5116V6.53488H57.5349V3.55814ZM54.5581 3.55814H57.5349V6.53488H54.5581V3.55814ZM54.5581 6.53488H57.5349V9.51163H54.5581V6.53488ZM57.5349 6.53488H60.5116V9.51163H57.5349V6.53488ZM57.5349 9.51163H60.5116V12.4884H57.5349V9.51163ZM54.5581 9.51163H57.5349V12.4884H54.5581V9.51163ZM54.5581 12.4884H57.5349V15.4651H54.5581V12.4884ZM54.5581 15.4651H57.5349V18.4419H54.5581V15.4651ZM54.5581 18.4419H57.5349V21.4186H54.5581V18.4419ZM54.5581 21.4186H57.5349V24.3953H54.5581V21.4186ZM54.5581 24.3953H57.5349V27.3721H54.5581V24.3953ZM54.5581 27.3721H57.5349V30.3488H54.5581V27.3721ZM57.5349 24.3953H60.5116V27.3721H57.5349V24.3953ZM57.5349 21.4186H60.5116V24.3953H57.5349V21.4186ZM57.5349 18.4419H60.5116V21.4186H57.5349V18.4419ZM57.5349 15.4651H60.5116V18.4419H57.5349V15.4651ZM57.5349 12.4884H60.5116V15.4651H57.5349V12.4884ZM57.5349 27.3721H60.5116V30.3488H57.5349V27.3721ZM60.5116 6.53488H63.4884V9.51163H60.5116V6.53488ZM63.4884 6.53488H66.4651V9.51163H63.4884V6.53488ZM63.4884 9.51163H66.4651V12.4884H63.4884V9.51163ZM63.4884 12.4884H66.4651V15.4651H63.4884V12.4884ZM63.4884 15.4651H66.4651V18.4419H63.4884V15.4651ZM60.5116 15.4651H63.4884V18.4419H60.5116V15.4651ZM60.5116 18.4419H63.4884V21.4186H60.5116V18.4419ZM60.5116 21.4186H63.4884V24.3953H60.5116V21.4186ZM60.5116 24.3953H63.4884V27.3721H60.5116V24.3953ZM60.5116 12.4884H63.4884V15.4651H60.5116V12.4884ZM60.5116 9.51163H63.4884V12.4884H60.5116V9.51163ZM60.5116 27.3721H63.4884V30.3488H60.5116V27.3721ZM63.4884 24.3953H66.4651V27.3721H63.4884V24.3953ZM63.4884 21.4186H66.4651V24.3953H63.4884V21.4186ZM63.4884 18.4419H66.4651V21.4186H63.4884V18.4419ZM63.4884 27.3721H66.4651V30.3488H63.4884V27.3721ZM54.5581 30.3488H57.5349V33.3256H54.5581V30.3488ZM54.5581 33.3256H57.5349V36.3023H54.5581V33.3256ZM54.5581 36.3023H57.5349V39.2791H54.5581V36.3023ZM54.5581 39.2791H57.5349V42.2558H54.5581V39.2791ZM54.5581 42.2558H57.5349V45.2326H54.5581V42.2558ZM54.5581 45.2326H57.5349V48.2093H54.5581V45.2326ZM57.5349 45.2326H60.5116V48.2093H57.5349V45.2326ZM60.5116 45.2326H63.4884V48.2093H60.5116V45.2326ZM63.4884 45.2326H66.4651V48.2093H63.4884V45.2326ZM63.4884 42.2558H66.4651V45.2326H63.4884V42.2558ZM63.4884 39.2791H66.4651V42.2558H63.4884V39.2791ZM63.4884 36.3023H66.4651V39.2791H63.4884V36.3023ZM63.4884 33.3256H66.4651V36.3023H63.4884V33.3256ZM63.4884 30.3488H66.4651V33.3256H63.4884V30.3488ZM60.5116 30.3488H63.4884V33.3256H60.5116V30.3488ZM60.5116 33.3256H63.4884V36.3023H60.5116V33.3256ZM60.5116 36.3023H63.4884V39.2791H60.5116V36.3023ZM60.5116 39.2791H63.4884V42.2558H60.5116V39.2791ZM60.5116 42.2558H63.4884V45.2326H60.5116V42.2558ZM57.5349 42.2558H60.5116V45.2326H57.5349V42.2558ZM57.5349 39.2791H60.5116V42.2558H57.5349V39.2791ZM57.5349 36.3023H60.5116V39.2791H57.5349V36.3023ZM57.5349 33.3256H60.5116V36.3023H57.5349V33.3256ZM57.5349 30.3488H60.5116V33.3256H57.5349V30.3488ZM33.7209 72.0233H36.6977V75H33.7209V72.0233ZM30.7442 72.0233H33.7209V75H30.7442V72.0233ZM30.7442 69.0465H33.7209V72.0233H30.7442V69.0465ZM33.7209 69.0465H36.6977V72.0233H33.7209V69.0465ZM36.6977 66.0698H39.6744V69.0465H36.6977V66.0698ZM39.6744 63.093H42.6512V66.0698H39.6744V63.093ZM39.6744 66.0698H42.6512V69.0465H39.6744V66.0698ZM42.6512 60.1163H45.6279V63.093H42.6512V60.1163ZM42.6512 57.1395H45.6279V60.1163H42.6512V57.1395ZM45.6279 57.1395H48.6047V60.1163H45.6279V57.1395ZM45.6279 60.1163H48.6047V63.093H45.6279V60.1163ZM42.6512 54.1628H45.6279V57.1395H42.6512V54.1628ZM45.6279 54.1628H48.6047V57.1395H45.6279V54.1628ZM45.6279 51.186H48.6047V54.1628H45.6279V51.186ZM45.6279 48.2093H48.6047V51.186H45.6279V48.2093ZM42.6512 51.186H45.6279V54.1628H42.6512V51.186ZM42.6512 48.2093H45.6279V51.186H42.6512V48.2093ZM33.7209 48.2093H36.6977V51.186H33.7209V48.2093ZM27.7674 48.2093H30.7442V51.186H27.7674V48.2093ZM30.7442 48.2093H33.7209V51.186H30.7442V48.2093ZM24.7907 48.2093H27.7674V51.186H24.7907V48.2093ZM21.814 63.093H24.7907V66.0698H21.814V63.093ZM18.8372 63.093H21.814V66.0698H18.8372V63.093ZM18.8372 66.0698H21.814V69.0465H18.8372V66.0698ZM21.814 66.0698H24.7907V69.0465H21.814V66.0698ZM27.7674 69.0465H30.7442V72.0233H27.7674V69.0465ZM24.7907 69.0465H27.7674V72.0233H24.7907V69.0465ZM24.7907 72.0233H27.7674V75H24.7907V72.0233ZM27.7674 72.0233H30.7442V75H27.7674V72.0233ZM24.7907 63.093H27.7674V66.0698H24.7907V63.093ZM27.7674 63.093H30.7442V66.0698H27.7674V63.093ZM33.7209 66.0698H36.6977V69.0465H33.7209V66.0698ZM30.7442 66.0698H33.7209V69.0465H30.7442V66.0698ZM27.7674 66.0698H30.7442V69.0465H27.7674V66.0698ZM24.7907 66.0698H27.7674V69.0465H24.7907V66.0698ZM21.814 60.1163H24.7907V63.093H21.814V60.1163ZM18.8372 60.1163H21.814V63.093H18.8372V60.1163ZM15.8605 63.093H18.8372V66.0698H15.8605V63.093ZM12.8837 63.093H15.8605V66.0698H12.8837V63.093ZM12.8837 66.0698H15.8605V69.0465H12.8837V66.0698ZM15.8605 66.0698H18.8372V69.0465H15.8605V66.0698ZM9.90698 63.093H12.8837V66.0698H9.90698V63.093ZM9.90698 66.0698H12.8837V69.0465H9.90698V66.0698ZM6.93023 66.0698H9.90698V69.0465H6.93023V66.0698ZM6.93023 63.093H9.90698V66.0698H6.93023V63.093ZM3.95349 69.0465H6.93023V72.0233H3.95349V69.0465ZM0.976744 69.0465H3.95349V72.0233H0.976744V69.0465ZM0.976744 72.0233H3.95349V75H0.976744V72.0233ZM24.7907 54.1628H27.7674V57.1395H24.7907V54.1628ZM24.7907 51.186H27.7674V54.1628H24.7907V51.186ZM27.7674 51.186H30.7442V54.1628H27.7674V51.186ZM30.7442 51.186H33.7209V54.1628H30.7442V51.186ZM33.7209 51.186H36.6977V54.1628H33.7209V51.186ZM33.7209 54.1628H36.6977V57.1395H33.7209V54.1628ZM30.7442 54.1628H33.7209V57.1395H30.7442V54.1628ZM27.7674 54.1628H30.7442V57.1395H27.7674V54.1628ZM54.5581 57.1395H57.5349V60.1163H54.5581V57.1395ZM54.5581 54.1628H57.5349V57.1395H54.5581V54.1628ZM54.5581 51.186H57.5349V54.1628H54.5581V51.186ZM54.5581 48.2093H57.5349V51.186H54.5581V48.2093ZM57.5349 48.2093H60.5116V51.186H57.5349V48.2093ZM60.5116 48.2093H63.4884V51.186H60.5116V48.2093ZM63.4884 48.2093H66.4651V51.186H63.4884V48.2093ZM63.4884 51.186H66.4651V54.1628H63.4884V51.186ZM63.4884 54.1628H66.4651V57.1395H63.4884V54.1628ZM63.4884 57.1395H66.4651V60.1163H63.4884V57.1395ZM57.5349 57.1395H60.5116V60.1163H57.5349V57.1395ZM57.5349 54.1628H60.5116V57.1395H57.5349V54.1628ZM57.5349 51.186H60.5116V54.1628H57.5349V51.186ZM60.5116 51.186H63.4884V54.1628H60.5116V51.186ZM60.5116 54.1628H63.4884V57.1395H60.5116V54.1628ZM60.5116 57.1395H63.4884V60.1163H60.5116V57.1395ZM66.4651 6.53488H69.4419V9.51163H66.4651V6.53488ZM69.4419 6.53488H72.4186V9.51163H69.4419V6.53488ZM66.4651 9.51163H69.4419V12.4884H66.4651V9.51163ZM3.95349 66.0698H6.93023V69.0465H3.95349V66.0698ZM12.8837 60.1163H15.8605V63.093H12.8837V60.1163ZM15.8605 60.1163H18.8372V63.093H15.8605V60.1163ZM36.6977 69.0465H39.6744V72.0233H36.6977V69.0465ZM42.6512 63.093H45.6279V66.0698H42.6512V63.093ZM21.814 69.0465H24.7907V72.0233H21.814V69.0465ZM18.8372 69.0465H21.814V72.0233H18.8372V69.0465ZM24.7907 60.1163H27.7674V63.093H24.7907V60.1163ZM15.8605 69.0465H18.8372V72.0233H15.8605V69.0465ZM18.8372 72.0233H21.814V75H18.8372V72.0233ZM21.814 72.0233H24.7907V75H21.814V72.0233ZM9.90698 3.55814H12.8837V6.53488H9.90698V3.55814ZM15.8605 6.53488H18.8372V9.51163H15.8605V6.53488ZM18.8372 9.51163H21.814V12.4884H18.8372V9.51163ZM21.814 12.4884H24.7907V15.4651H21.814V12.4884ZM3.95349 12.4884H6.93023V15.4651H3.95349V12.4884ZM42.6512 15.4651H45.6279V18.4419H42.6512V15.4651ZM42.6512 18.4419H45.6279V21.4186H42.6512V18.4419ZM39.6744 9.51163H42.6512V12.4884H39.6744V9.51163ZM45.6279 3.55814H48.6047V6.53488H45.6279V3.55814ZM60.5116 3.55814H63.4884V6.53488H60.5116V3.55814ZM51.5814 6.53488H54.5581V9.51163H51.5814V6.53488ZM69.4419 3.55814H72.4186V6.53488H69.4419V3.55814ZM54.5581 60.1163H57.5349V63.093H54.5581V60.1163ZM54.5581 63.093H57.5349V66.0698H54.5581V63.093ZM54.5581 66.0698H57.5349V69.0465H54.5581V66.0698ZM57.5349 66.0698H60.5116V69.0465H57.5349V66.0698ZM60.5116 66.0698H63.4884V69.0465H60.5116V66.0698ZM63.4884 66.0698H66.4651V69.0465H63.4884V66.0698ZM63.4884 63.093H66.4651V66.0698H63.4884V63.093ZM63.4884 60.1163H66.4651V63.093H63.4884V60.1163ZM57.5349 60.1163H60.5116V63.093H57.5349V60.1163ZM57.5349 63.093H60.5116V66.0698H57.5349V63.093ZM60.5116 63.093H63.4884V66.0698H60.5116V63.093ZM60.5116 60.1163H63.4884V63.093H60.5116V60.1163ZM63.4884 69.0465H66.4651V72.0233H63.4884V69.0465ZM60.5116 69.0465H63.4884V72.0233H60.5116V69.0465ZM60.5116 72.0233H63.4884V75H60.5116V72.0233ZM63.4884 72.0233H66.4651V75H63.4884V72.0233ZM66.4651 63.093H69.4419V66.0698H66.4651V63.093ZM69.4419 63.093H72.4186V66.0698H69.4419V63.093ZM69.4419 66.0698H72.4186V69.0465H69.4419V66.0698ZM66.4651 66.0698H69.4419V69.0465H66.4651V66.0698ZM66.4651 69.0465H69.4419V72.0233H66.4651V69.0465ZM72.4186 3.55814H75.3953V6.53488H72.4186V3.55814ZM72.4186 0.581398H75.3953V3.55814H72.4186V0.581398ZM57.5349 69.0465H60.5116V72.0233H57.5349V69.0465Z" fill="white"/>
</svg>
