<svg width="234" height="75" viewBox="0 0 234 75" fill="none" xmlns="http://www.w3.org/2000/svg">
<path d="M12.8837 0.581398H15.8605V3.55814H12.8837V0.581398ZM15.8605 0.581398H18.8372V3.55814H15.8605V0.581398ZM15.8605 3.55814H18.8372V6.53488H15.8605V3.55814ZM12.8837 3.55814H15.8605V6.53488H12.8837V3.55814ZM9.90698 6.53488H12.8837V9.51163H9.90698V6.53488ZM6.93023 6.53488H9.90698V9.51163H6.93023V6.53488ZM3.95349 9.51163H6.93023V12.4884H3.95349V9.51163ZM6.93023 9.51163H9.90698V12.4884H6.93023V9.51163ZM21.814 0.581398H24.7907V3.55814H21.814V0.581398ZM18.8372 0.581398H21.814V3.55814H18.8372V0.581398ZM18.8372 3.55814H21.814V6.53488H18.8372V3.55814ZM21.814 3.55814H24.7907V6.53488H21.814V3.55814ZM24.7907 0.581398H27.7674V3.55814H24.7907V0.581398ZM27.7674 3.55814H30.7442V6.53488H27.7674V3.55814ZM24.7907 3.55814H27.7674V6.53488H24.7907V3.55814ZM30.7442 6.53488H33.7209V9.51163H30.7442V6.53488ZM33.7209 9.51163H36.6977V12.4884H33.7209V9.51163ZM30.7442 9.51163H33.7209V12.4884H30.7442V9.51163ZM27.7674 9.51163H30.7442V12.4884H27.7674V9.51163ZM24.7907 9.51163H27.7674V12.4884H24.7907V9.51163ZM21.814 9.51163H24.7907V12.4884H21.814V9.51163ZM18.8372 6.53488H21.814V9.51163H18.8372V6.53488ZM21.814 6.53488H24.7907V9.51163H21.814V6.53488ZM24.7907 6.53488H27.7674V9.51163H24.7907V6.53488ZM27.7674 6.53488H30.7442V9.51163H27.7674V6.53488ZM42.6512 6.53488H45.6279V9.51163H42.6512V6.53488ZM45.6279 6.53488H48.6047V9.51163H45.6279V6.53488ZM42.6512 9.51163H45.6279V12.4884H42.6512V9.51163ZM48.6047 3.55814H51.5814V6.53488H48.6047V3.55814ZM48.6047 0.581398H51.5814V3.55814H48.6047V0.581398ZM51.5814 0.581398H54.5581V3.55814H51.5814V0.581398ZM51.5814 3.55814H54.5581V6.53488H51.5814V3.55814ZM36.6977 12.4884H39.6744V15.4651H36.6977V12.4884ZM39.6744 12.4884H42.6512V15.4651H39.6744V12.4884ZM39.6744 15.4651H42.6512V18.4419H39.6744V15.4651ZM45.6279 18.4419H48.6047V21.4186H45.6279V18.4419ZM45.6279 21.4186H48.6047V24.3953H45.6279V21.4186ZM42.6512 21.4186H45.6279V24.3953H42.6512V21.4186ZM42.6512 24.3953H45.6279V27.3721H42.6512V24.3953ZM42.6512 27.3721H45.6279V30.3488H42.6512V27.3721ZM42.6512 30.3488H45.6279V33.3256H42.6512V30.3488ZM42.6512 33.3256H45.6279V36.3023H42.6512V33.3256ZM42.6512 36.3023H45.6279V39.2791H42.6512V36.3023ZM45.6279 36.3023H48.6047V39.2791H45.6279V36.3023ZM45.6279 33.3256H48.6047V36.3023H45.6279V33.3256ZM45.6279 30.3488H48.6047V33.3256H45.6279V30.3488ZM45.6279 27.3721H48.6047V30.3488H45.6279V27.3721ZM45.6279 24.3953H48.6047V27.3721H45.6279V24.3953ZM33.7209 12.4884H36.6977V15.4651H33.7209V12.4884ZM33.7209 15.4651H36.6977V18.4419H33.7209V15.4651ZM33.7209 18.4419H36.6977V21.4186H33.7209V18.4419ZM33.7209 21.4186H36.6977V24.3953H33.7209V21.4186ZM33.7209 24.3953H36.6977V27.3721H33.7209V24.3953ZM33.7209 27.3721H36.6977V30.3488H33.7209V27.3721ZM33.7209 30.3488H36.6977V33.3256H33.7209V30.3488ZM33.7209 33.3256H36.6977V36.3023H33.7209V33.3256ZM33.7209 36.3023H36.6977V39.2791H33.7209V36.3023ZM30.7442 36.3023H33.7209V39.2791H30.7442V36.3023ZM30.7442 33.3256H33.7209V36.3023H30.7442V33.3256ZM30.7442 30.3488H33.7209V33.3256H30.7442V30.3488ZM30.7442 27.3721H33.7209V30.3488H30.7442V27.3721ZM30.7442 24.3953H33.7209V27.3721H30.7442V24.3953ZM30.7442 21.4186H33.7209V24.3953H30.7442V21.4186ZM30.7442 18.4419H33.7209V21.4186H30.7442V18.4419ZM30.7442 15.4651H33.7209V18.4419H30.7442V15.4651ZM30.7442 12.4884H33.7209V15.4651H30.7442V12.4884ZM27.7674 12.4884H30.7442V15.4651H27.7674V12.4884ZM24.7907 12.4884H27.7674V15.4651H24.7907V12.4884ZM24.7907 15.4651H27.7674V18.4419H24.7907V15.4651ZM24.7907 18.4419H27.7674V21.4186H24.7907V18.4419ZM24.7907 21.4186H27.7674V24.3953H24.7907V21.4186ZM24.7907 24.3953H27.7674V27.3721H24.7907V24.3953ZM24.7907 27.3721H27.7674V30.3488H24.7907V27.3721ZM24.7907 30.3488H27.7674V33.3256H24.7907V30.3488ZM24.7907 33.3256H27.7674V36.3023H24.7907V33.3256ZM24.7907 36.3023H27.7674V39.2791H24.7907V36.3023ZM24.7907 39.2791H27.7674V42.2558H24.7907V39.2791ZM27.7674 36.3023H30.7442V39.2791H27.7674V36.3023ZM27.7674 33.3256H30.7442V36.3023H27.7674V33.3256ZM27.7674 30.3488H30.7442V33.3256H27.7674V30.3488ZM27.7674 27.3721H30.7442V30.3488H27.7674V27.3721ZM27.7674 21.4186H30.7442V24.3953H27.7674V21.4186ZM27.7674 18.4419H30.7442V21.4186H27.7674V18.4419ZM27.7674 15.4651H30.7442V18.4419H27.7674V15.4651ZM27.7674 24.3953H30.7442V27.3721H27.7674V24.3953ZM21.814 24.3953H24.7907V27.3721H21.814V24.3953ZM18.8372 24.3953H21.814V27.3721H18.8372V24.3953ZM15.8605 24.3953H18.8372V27.3721H15.8605V24.3953ZM12.8837 24.3953H15.8605V27.3721H12.8837V24.3953ZM12.8837 27.3721H15.8605V30.3488H12.8837V27.3721ZM15.8605 27.3721H18.8372V30.3488H15.8605V27.3721ZM18.8372 27.3721H21.814V30.3488H18.8372V27.3721ZM21.814 27.3721H24.7907V30.3488H21.814V27.3721ZM21.814 36.3023H24.7907V39.2791H21.814V36.3023ZM18.8372 36.3023H21.814V39.2791H18.8372V36.3023ZM15.8605 36.3023H18.8372V39.2791H15.8605V36.3023ZM12.8837 36.3023H15.8605V39.2791H12.8837V36.3023ZM12.8837 39.2791H15.8605V42.2558H12.8837V39.2791ZM15.8605 39.2791H18.8372V42.2558H15.8605V39.2791ZM18.8372 39.2791H21.814V42.2558H18.8372V39.2791ZM21.814 39.2791H24.7907V42.2558H21.814V39.2791ZM27.7674 39.2791H30.7442V42.2558H27.7674V39.2791ZM30.7442 39.2791H33.7209V42.2558H30.7442V39.2791ZM33.7209 39.2791H36.6977V42.2558H33.7209V39.2791ZM42.6512 39.2791H45.6279V42.2558H42.6512V39.2791ZM45.6279 39.2791H48.6047V42.2558H45.6279V39.2791ZM24.7907 42.2558H27.7674V45.2326H24.7907V42.2558ZM24.7907 45.2326H27.7674V48.2093H24.7907V45.2326ZM27.7674 45.2326H30.7442V48.2093H27.7674V45.2326ZM30.7442 45.2326H33.7209V48.2093H30.7442V45.2326ZM33.7209 45.2326H36.6977V48.2093H33.7209V45.2326ZM33.7209 42.2558H36.6977V45.2326H33.7209V42.2558ZM30.7442 42.2558H33.7209V45.2326H30.7442V42.2558ZM27.7674 42.2558H30.7442V45.2326H27.7674V42.2558ZM42.6512 42.2558H45.6279V45.2326H42.6512V42.2558ZM45.6279 42.2558H48.6047V45.2326H45.6279V42.2558ZM45.6279 45.2326H48.6047V48.2093H45.6279V45.2326ZM42.6512 45.2326H45.6279V48.2093H42.6512V45.2326ZM54.5581 0.581398H57.5349V3.55814H54.5581V0.581398ZM57.5349 0.581398H60.5116V3.55814H57.5349V0.581398ZM57.5349 3.55814H60.5116V6.53488H57.5349V3.55814ZM54.5581 3.55814H57.5349V6.53488H54.5581V3.55814ZM54.5581 6.53488H57.5349V9.51163H54.5581V6.53488ZM57.5349 6.53488H60.5116V9.51163H57.5349V6.53488ZM57.5349 9.51163H60.5116V12.4884H57.5349V9.51163ZM54.5581 9.51163H57.5349V12.4884H54.5581V9.51163ZM54.5581 12.4884H57.5349V15.4651H54.5581V12.4884ZM54.5581 15.4651H57.5349V18.4419H54.5581V15.4651ZM54.5581 18.4419H57.5349V21.4186H54.5581V18.4419ZM54.5581 21.4186H57.5349V24.3953H54.5581V21.4186ZM54.5581 24.3953H57.5349V27.3721H54.5581V24.3953ZM54.5581 27.3721H57.5349V30.3488H54.5581V27.3721ZM57.5349 24.3953H60.5116V27.3721H57.5349V24.3953ZM57.5349 21.4186H60.5116V24.3953H57.5349V21.4186ZM57.5349 18.4419H60.5116V21.4186H57.5349V18.4419ZM57.5349 15.4651H60.5116V18.4419H57.5349V15.4651ZM57.5349 12.4884H60.5116V15.4651H57.5349V12.4884ZM57.5349 27.3721H60.5116V30.3488H57.5349V27.3721ZM60.5116 6.53488H63.4884V9.51163H60.5116V6.53488ZM63.4884 6.53488H66.4651V9.51163H63.4884V6.53488ZM63.4884 9.51163H66.4651V12.4884H63.4884V9.51163ZM63.4884 12.4884H66.4651V15.4651H63.4884V12.4884ZM63.4884 15.4651H66.4651V18.4419H63.4884V15.4651ZM60.5116 15.4651H63.4884V18.4419H60.5116V15.4651ZM60.5116 18.4419H63.4884V21.4186H60.5116V18.4419ZM60.5116 21.4186H63.4884V24.3953H60.5116V21.4186ZM60.5116 24.3953H63.4884V27.3721H60.5116V24.3953ZM60.5116 12.4884H63.4884V15.4651H60.5116V12.4884ZM60.5116 9.51163H63.4884V12.4884H60.5116V9.51163ZM60.5116 27.3721H63.4884V30.3488H60.5116V27.3721ZM63.4884 24.3953H66.4651V27.3721H63.4884V24.3953ZM63.4884 21.4186H66.4651V24.3953H63.4884V21.4186ZM63.4884 18.4419H66.4651V21.4186H63.4884V18.4419ZM63.4884 27.3721H66.4651V30.3488H63.4884V27.3721ZM54.5581 30.3488H57.5349V33.3256H54.5581V30.3488ZM54.5581 33.3256H57.5349V36.3023H54.5581V33.3256ZM54.5581 36.3023H57.5349V39.2791H54.5581V36.3023ZM54.5581 39.2791H57.5349V42.2558H54.5581V39.2791ZM54.5581 42.2558H57.5349V45.2326H54.5581V42.2558ZM54.5581 45.2326H57.5349V48.2093H54.5581V45.2326ZM57.5349 45.2326H60.5116V48.2093H57.5349V45.2326ZM60.5116 45.2326H63.4884V48.2093H60.5116V45.2326ZM63.4884 45.2326H66.4651V48.2093H63.4884V45.2326ZM63.4884 42.2558H66.4651V45.2326H63.4884V42.2558ZM63.4884 39.2791H66.4651V42.2558H63.4884V39.2791ZM63.4884 36.3023H66.4651V39.2791H63.4884V36.3023ZM63.4884 33.3256H66.4651V36.3023H63.4884V33.3256ZM63.4884 30.3488H66.4651V33.3256H63.4884V30.3488ZM60.5116 30.3488H63.4884V33.3256H60.5116V30.3488ZM60.5116 33.3256H63.4884V36.3023H60.5116V33.3256ZM60.5116 36.3023H63.4884V39.2791H60.5116V36.3023ZM60.5116 39.2791H63.4884V42.2558H60.5116V39.2791ZM60.5116 42.2558H63.4884V45.2326H60.5116V42.2558ZM57.5349 42.2558H60.5116V45.2326H57.5349V42.2558ZM57.5349 39.2791H60.5116V42.2558H57.5349V39.2791ZM57.5349 36.3023H60.5116V39.2791H57.5349V36.3023ZM57.5349 33.3256H60.5116V36.3023H57.5349V33.3256ZM57.5349 30.3488H60.5116V33.3256H57.5349V30.3488ZM33.7209 72.0233H36.6977V75H33.7209V72.0233ZM30.7442 72.0233H33.7209V75H30.7442V72.0233ZM30.7442 69.0465H33.7209V72.0233H30.7442V69.0465ZM33.7209 69.0465H36.6977V72.0233H33.7209V69.0465ZM36.6977 66.0698H39.6744V69.0465H36.6977V66.0698ZM39.6744 63.093H42.6512V66.0698H39.6744V63.093ZM39.6744 66.0698H42.6512V69.0465H39.6744V66.0698ZM42.6512 60.1163H45.6279V63.093H42.6512V60.1163ZM42.6512 57.1395H45.6279V60.1163H42.6512V57.1395ZM45.6279 57.1395H48.6047V60.1163H45.6279V57.1395ZM45.6279 60.1163H48.6047V63.093H45.6279V60.1163ZM42.6512 54.1628H45.6279V57.1395H42.6512V54.1628ZM45.6279 54.1628H48.6047V57.1395H45.6279V54.1628ZM45.6279 51.186H48.6047V54.1628H45.6279V51.186ZM45.6279 48.2093H48.6047V51.186H45.6279V48.2093ZM42.6512 51.186H45.6279V54.1628H42.6512V51.186ZM42.6512 48.2093H45.6279V51.186H42.6512V48.2093ZM33.7209 48.2093H36.6977V51.186H33.7209V48.2093ZM27.7674 48.2093H30.7442V51.186H27.7674V48.2093ZM30.7442 48.2093H33.7209V51.186H30.7442V48.2093ZM24.7907 48.2093H27.7674V51.186H24.7907V48.2093ZM21.814 63.093H24.7907V66.0698H21.814V63.093ZM18.8372 63.093H21.814V66.0698H18.8372V63.093ZM18.8372 66.0698H21.814V69.0465H18.8372V66.0698ZM21.814 66.0698H24.7907V69.0465H21.814V66.0698ZM27.7674 69.0465H30.7442V72.0233H27.7674V69.0465ZM24.7907 69.0465H27.7674V72.0233H24.7907V69.0465ZM24.7907 72.0233H27.7674V75H24.7907V72.0233ZM27.7674 72.0233H30.7442V75H27.7674V72.0233ZM24.7907 63.093H27.7674V66.0698H24.7907V63.093ZM27.7674 63.093H30.7442V66.0698H27.7674V63.093ZM33.7209 66.0698H36.6977V69.0465H33.7209V66.0698ZM30.7442 66.0698H33.7209V69.0465H30.7442V66.0698ZM27.7674 66.0698H30.7442V69.0465H27.7674V66.0698ZM24.7907 66.0698H27.7674V69.0465H24.7907V66.0698ZM21.814 60.1163H24.7907V63.093H21.814V60.1163ZM18.8372 60.1163H21.814V63.093H18.8372V60.1163ZM15.8605 63.093H18.8372V66.0698H15.8605V63.093ZM12.8837 63.093H15.8605V66.0698H12.8837V63.093ZM12.8837 66.0698H15.8605V69.0465H12.8837V66.0698ZM15.8605 66.0698H18.8372V69.0465H15.8605V66.0698ZM9.90698 63.093H12.8837V66.0698H9.90698V63.093ZM9.90698 66.0698H12.8837V69.0465H9.90698V66.0698ZM6.93023 66.0698H9.90698V69.0465H6.93023V66.0698ZM6.93023 63.093H9.90698V66.0698H6.93023V63.093ZM3.95349 69.0465H6.93023V72.0233H3.95349V69.0465ZM0.976744 69.0465H3.95349V72.0233H0.976744V69.0465ZM0.976744 72.0233H3.95349V75H0.976744V72.0233ZM24.7907 54.1628H27.7674V57.1395H24.7907V54.1628ZM24.7907 51.186H27.7674V54.1628H24.7907V51.186ZM27.7674 51.186H30.7442V54.1628H27.7674V51.186ZM30.7442 51.186H33.7209V54.1628H30.7442V51.186ZM33.7209 51.186H36.6977V54.1628H33.7209V51.186ZM33.7209 54.1628H36.6977V57.1395H33.7209V54.1628ZM30.7442 54.1628H33.7209V57.1395H30.7442V54.1628ZM27.7674 54.1628H30.7442V57.1395H27.7674V54.1628ZM54.5581 57.1395H57.5349V60.1163H54.5581V57.1395ZM54.5581 54.1628H57.5349V57.1395H54.5581V54.1628ZM54.5581 51.186H57.5349V54.1628H54.5581V51.186ZM54.5581 48.2093H57.5349V51.186H54.5581V48.2093ZM57.5349 48.2093H60.5116V51.186H57.5349V48.2093ZM60.5116 48.2093H63.4884V51.186H60.5116V48.2093ZM63.4884 48.2093H66.4651V51.186H63.4884V48.2093ZM63.4884 51.186H66.4651V54.1628H63.4884V51.186ZM63.4884 54.1628H66.4651V57.1395H63.4884V54.1628ZM63.4884 57.1395H66.4651V60.1163H63.4884V57.1395ZM57.5349 57.1395H60.5116V60.1163H57.5349V57.1395ZM57.5349 54.1628H60.5116V57.1395H57.5349V54.1628ZM57.5349 51.186H60.5116V54.1628H57.5349V51.186ZM60.5116 51.186H63.4884V54.1628H60.5116V51.186ZM60.5116 54.1628H63.4884V57.1395H60.5116V54.1628ZM60.5116 57.1395H63.4884V60.1163H60.5116V57.1395ZM66.4651 6.53488H69.4419V9.51163H66.4651V6.53488ZM69.4419 6.53488H72.4186V9.51163H69.4419V6.53488ZM66.4651 9.51163H69.4419V12.4884H66.4651V9.51163ZM3.95349 66.0698H6.93023V69.0465H3.95349V66.0698ZM12.8837 60.1163H15.8605V63.093H12.8837V60.1163ZM15.8605 60.1163H18.8372V63.093H15.8605V60.1163ZM36.6977 69.0465H39.6744V72.0233H36.6977V69.0465ZM42.6512 63.093H45.6279V66.0698H42.6512V63.093ZM21.814 69.0465H24.7907V72.0233H21.814V69.0465ZM18.8372 69.0465H21.814V72.0233H18.8372V69.0465ZM24.7907 60.1163H27.7674V63.093H24.7907V60.1163ZM15.8605 69.0465H18.8372V72.0233H15.8605V69.0465ZM18.8372 72.0233H21.814V75H18.8372V72.0233ZM21.814 72.0233H24.7907V75H21.814V72.0233ZM9.90698 3.55814H12.8837V6.53488H9.90698V3.55814ZM15.8605 6.53488H18.8372V9.51163H15.8605V6.53488ZM18.8372 9.51163H21.814V12.4884H18.8372V9.51163ZM21.814 12.4884H24.7907V15.4651H21.814V12.4884ZM3.95349 12.4884H6.93023V15.4651H3.95349V12.4884ZM42.6512 15.4651H45.6279V18.4419H42.6512V15.4651ZM42.6512 18.4419H45.6279V21.4186H42.6512V18.4419ZM39.6744 9.51163H42.6512V12.4884H39.6744V9.51163ZM45.6279 3.55814H48.6047V6.53488H45.6279V3.55814ZM60.5116 3.55814H63.4884V6.53488H60.5116V3.55814ZM51.5814 6.53488H54.5581V9.51163H51.5814V6.53488ZM69.4419 3.55814H72.4186V6.53488H69.4419V3.55814ZM54.5581 60.1163H57.5349V63.093H54.5581V60.1163ZM54.5581 63.093H57.5349V66.0698H54.5581V63.093ZM54.5581 66.0698H57.5349V69.0465H54.5581V66.0698ZM57.5349 66.0698H60.5116V69.0465H57.5349V66.0698ZM60.5116 66.0698H63.4884V69.0465H60.5116V66.0698ZM63.4884 66.0698H66.4651V69.0465H63.4884V66.0698ZM63.4884 63.093H66.4651V66.0698H63.4884V63.093ZM63.4884 60.1163H66.4651V63.093H63.4884V60.1163ZM57.5349 60.1163H60.5116V63.093H57.5349V60.1163ZM57.5349 63.093H60.5116V66.0698H57.5349V63.093ZM60.5116 63.093H63.4884V66.0698H60.5116V63.093ZM60.5116 60.1163H63.4884V63.093H60.5116V60.1163ZM63.4884 69.0465H66.4651V72.0233H63.4884V69.0465ZM60.5116 69.0465H63.4884V72.0233H60.5116V69.0465ZM60.5116 72.0233H63.4884V75H60.5116V72.0233ZM63.4884 72.0233H66.4651V75H63.4884V72.0233ZM66.4651 63.093H69.4419V66.0698H66.4651V63.093ZM69.4419 63.093H72.4186V66.0698H69.4419V63.093ZM69.4419 66.0698H72.4186V69.0465H69.4419V66.0698ZM66.4651 66.0698H69.4419V69.0465H66.4651V66.0698ZM66.4651 69.0465H69.4419V72.0233H66.4651V69.0465ZM72.4186 3.55814H75.3953V6.53488H72.4186V3.55814ZM72.4186 0.581398H75.3953V3.55814H72.4186V0.581398ZM57.5349 69.0465H60.5116V72.0233H57.5349V69.0465ZM79.602 72.0233H82.5787V75H79.602V72.0233ZM82.5787 72.0233H85.5555V75H82.5787V72.0233ZM76.6252 69.0465H79.602V72.0233H76.6252V69.0465ZM79.602 69.0465H82.5787V72.0233H79.602V69.0465ZM82.5787 69.0465H85.5555V72.0233H82.5787V69.0465ZM85.5555 69.0465H88.5322V72.0233H85.5555V69.0465ZM73.6485 66.0698H76.6252V69.0465H73.6485V66.0698ZM76.6252 66.0698H79.602V69.0465H76.6252V66.0698ZM76.6252 63.093H79.602V66.0698H76.6252V63.093ZM79.602 63.093H82.5787V66.0698H79.602V63.093ZM79.602 66.0698H82.5787V69.0465H79.602V66.0698ZM82.5787 66.0698H85.5555V69.0465H82.5787V66.0698ZM85.5555 66.0698H88.5322V69.0465H85.5555V66.0698ZM85.5555 63.093H88.5322V66.0698H85.5555V63.093ZM82.5787 63.093H85.5555V66.0698H82.5787V63.093ZM79.602 60.1163H82.5787V63.093H79.602V60.1163ZM82.5787 60.1163H85.5555V63.093H82.5787V60.1163ZM85.5555 60.1163H88.5322V63.093H85.5555V60.1163ZM85.5555 57.1395H88.5322V60.1163H85.5555V57.1395ZM82.5787 57.1395H85.5555V60.1163H82.5787V57.1395ZM79.602 57.1395H82.5787V60.1163H79.602V57.1395ZM79.602 54.1628H82.5787V57.1395H79.602V54.1628ZM79.602 51.186H82.5787V54.1628H79.602V51.186ZM79.602 48.2093H82.5787V51.186H79.602V48.2093ZM79.602 45.2326H82.5787V48.2093H79.602V45.2326ZM79.602 42.2558H82.5787V45.2326H79.602V42.2558ZM82.5787 42.2558H85.5555V45.2326H82.5787V42.2558ZM85.5555 42.2558H88.5322V45.2326H85.5555V42.2558ZM85.5555 45.2326H88.5322V48.2093H85.5555V45.2326ZM85.5555 48.2093H88.5322V51.186H85.5555V48.2093ZM85.5555 51.186H88.5322V54.1628H85.5555V51.186ZM82.5787 51.186H85.5555V54.1628H82.5787V51.186ZM82.5787 54.1628H85.5555V57.1395H82.5787V54.1628ZM82.5787 48.2093H85.5555V51.186H82.5787V48.2093ZM82.5787 45.2326H85.5555V48.2093H82.5787V45.2326ZM85.5555 54.1628H88.5322V57.1395H85.5555V54.1628ZM85.5555 39.2791H88.5322V42.2558H85.5555V39.2791ZM85.5555 36.3023H88.5322V39.2791H85.5555V36.3023ZM85.5555 33.3256H88.5322V36.3023H85.5555V33.3256ZM85.5555 30.3488H88.5322V33.3256H85.5555V30.3488ZM85.5555 27.3721H88.5322V30.3488H85.5555V27.3721ZM79.602 27.3721H82.5787V30.3488H79.602V27.3721ZM82.5787 30.3488H85.5555V33.3256H82.5787V30.3488ZM82.5787 33.3256H85.5555V36.3023H82.5787V33.3256ZM82.5787 36.3023H85.5555V39.2791H82.5787V36.3023ZM82.5787 39.2791H85.5555V42.2558H82.5787V39.2791ZM79.602 39.2791H82.5787V42.2558H79.602V39.2791ZM79.602 36.3023H82.5787V39.2791H79.602V36.3023ZM79.602 33.3256H82.5787V36.3023H79.602V33.3256ZM79.602 30.3488H82.5787V33.3256H79.602V30.3488ZM82.5787 27.3721H85.5555V30.3488H82.5787V27.3721ZM76.6252 60.1163H79.602V63.093H76.6252V60.1163ZM76.6252 57.1395H79.602V60.1163H76.6252V57.1395ZM76.6252 54.1628H79.602V57.1395H76.6252V54.1628ZM76.6252 51.186H79.602V54.1628H76.6252V51.186ZM76.6252 48.2093H79.602V51.186H76.6252V48.2093ZM76.6252 45.2326H79.602V48.2093H76.6252V45.2326ZM76.6252 42.2558H79.602V45.2326H76.6252V42.2558ZM76.6252 39.2791H79.602V42.2558H76.6252V39.2791ZM76.6252 36.3023H79.602V39.2791H76.6252V36.3023ZM76.6252 33.3256H79.602V36.3023H76.6252V33.3256ZM76.6252 27.3721H79.602V30.3488H76.6252V27.3721ZM76.6252 30.3488H79.602V33.3256H76.6252V30.3488ZM91.509 63.093H94.4857V66.0698H91.509V63.093ZM79.602 24.3953H82.5787V27.3721H79.602V24.3953ZM82.5787 24.3953H85.5555V27.3721H82.5787V24.3953ZM76.6252 12.4884H79.602V15.4651H76.6252V12.4884ZM79.602 12.4884H82.5787V15.4651H79.602V12.4884ZM82.5787 12.4884H85.5555V15.4651H82.5787V12.4884ZM85.5555 12.4884H88.5322V15.4651H85.5555V12.4884ZM85.5555 9.51163H88.5322V12.4884H85.5555V9.51163ZM85.5555 6.53488H88.5322V9.51163H85.5555V6.53488ZM85.5555 3.55814H88.5322V6.53488H85.5555V3.55814ZM82.5787 3.55814H85.5555V6.53488H82.5787V3.55814ZM79.602 3.55814H82.5787V6.53488H79.602V3.55814ZM76.6252 3.55814H79.602V6.53488H76.6252V3.55814ZM76.6252 6.53488H79.602V9.51163H76.6252V6.53488ZM76.6252 9.51163H79.602V12.4884H76.6252V9.51163ZM79.602 9.51163H82.5787V12.4884H79.602V9.51163ZM82.5787 9.51163H85.5555V12.4884H82.5787V9.51163ZM82.5787 6.53488H85.5555V9.51163H82.5787V6.53488ZM79.602 6.53488H82.5787V9.51163H79.602V6.53488ZM88.5322 66.0698H91.509V69.0465H88.5322V66.0698ZM73.6485 30.3488H76.6252V33.3256H73.6485V30.3488ZM70.6717 30.3488H73.6485V33.3256H70.6717V30.3488ZM70.6717 33.3256H73.6485V36.3023H70.6717V33.3256ZM73.6485 33.3256H76.6252V36.3023H73.6485V33.3256ZM88.5322 30.3488H91.509V33.3256H88.5322V30.3488ZM91.509 30.3488H94.4857V33.3256H91.509V30.3488ZM91.509 33.3256H94.4857V36.3023H91.509V33.3256ZM88.5322 33.3256H91.509V36.3023H88.5322V33.3256ZM70.6717 63.093H73.6485V66.0698H70.6717V63.093ZM73.6485 63.093H76.6252V66.0698H73.6485V63.093ZM88.5322 63.093H91.509V66.0698H88.5322V63.093ZM70.6717 66.0698H73.6485V69.0465H70.6717V66.0698ZM76.6252 72.0233H79.602V75H76.6252V72.0233ZM101.672 69.0465H104.649V72.0233H101.672V69.0465ZM101.672 66.0698H104.649V69.0465H101.672V66.0698ZM101.672 63.093H104.649V66.0698H101.672V63.093ZM101.672 60.1163H104.649V63.093H101.672V60.1163ZM101.672 57.1395H104.649V60.1163H101.672V57.1395ZM101.672 54.1628H104.649V57.1395H101.672V54.1628ZM101.672 51.186H104.649V54.1628H101.672V51.186ZM101.672 48.2093H104.649V51.186H101.672V48.2093ZM101.672 45.2326H104.649V48.2093H101.672V45.2326ZM101.672 42.2558H104.649V45.2326H101.672V42.2558ZM104.649 42.2558H107.625V45.2326H104.649V42.2558ZM107.625 42.2558H110.602V45.2326H107.625V42.2558ZM98.6952 42.2558H101.672V45.2326H98.6952V42.2558ZM98.6952 45.2326H101.672V48.2093H98.6952V45.2326ZM98.6952 48.2093H101.672V51.186H98.6952V48.2093ZM98.6952 51.186H101.672V54.1628H98.6952V51.186ZM98.6952 54.1628H101.672V57.1395H98.6952V54.1628ZM98.6952 57.1395H101.672V60.1163H98.6952V57.1395ZM98.6952 60.1163H101.672V63.093H98.6952V60.1163ZM98.6952 63.093H101.672V66.0698H98.6952V63.093ZM98.6952 66.0698H101.672V69.0465H98.6952V66.0698ZM104.649 66.0698H107.625V69.0465H104.649V66.0698ZM107.625 66.0698H110.602V69.0465H107.625V66.0698ZM107.625 63.093H110.602V66.0698H107.625V63.093ZM107.625 60.1163H110.602V63.093H107.625V60.1163ZM107.625 57.1395H110.602V60.1163H107.625V57.1395ZM107.625 54.1628H110.602V57.1395H107.625V54.1628ZM107.625 51.186H110.602V54.1628H107.625V51.186ZM107.625 48.2093H110.602V51.186H107.625V48.2093ZM107.625 45.2326H110.602V48.2093H107.625V45.2326ZM104.649 45.2326H107.625V48.2093H104.649V45.2326ZM104.649 48.2093H107.625V51.186H104.649V48.2093ZM104.649 51.186H107.625V54.1628H104.649V51.186ZM104.649 54.1628H107.625V57.1395H104.649V54.1628ZM104.649 57.1395H107.625V60.1163H104.649V57.1395ZM104.649 60.1163H107.625V63.093H104.649V60.1163ZM104.649 63.093H107.625V66.0698H104.649V63.093ZM104.649 69.0465H107.625V72.0233H104.649V69.0465ZM107.625 69.0465H110.602V72.0233H107.625V69.0465ZM107.625 72.0233H110.602V75H107.625V72.0233ZM104.649 72.0233H107.625V75H104.649V72.0233ZM110.602 66.0698H113.579V69.0465H110.602V66.0698ZM113.579 66.0698H116.556V69.0465H113.579V66.0698ZM116.556 66.0698H119.532V69.0465H116.556V66.0698ZM107.625 39.2791H110.602V42.2558H107.625V39.2791ZM107.625 36.3023H110.602V39.2791H107.625V36.3023ZM107.625 33.3256H110.602V36.3023H107.625V33.3256ZM107.625 30.3488H110.602V33.3256H107.625V30.3488ZM98.6952 36.3023H101.672V39.2791H98.6952V36.3023ZM98.6952 39.2791H101.672V42.2558H98.6952V39.2791ZM101.672 39.2791H104.649V42.2558H101.672V39.2791ZM101.672 36.3023H104.649V39.2791H101.672V36.3023ZM104.649 36.3023H107.625V39.2791H104.649V36.3023ZM104.649 33.3256H107.625V36.3023H104.649V33.3256ZM104.649 30.3488H107.625V33.3256H104.649V30.3488ZM104.649 39.2791H107.625V42.2558H104.649V39.2791ZM113.579 24.3953H116.556V27.3721H113.579V24.3953ZM113.579 27.3721H116.556V30.3488H113.579V27.3721ZM110.602 27.3721H113.579V30.3488H110.602V27.3721ZM116.556 24.3953H119.532V27.3721H116.556V24.3953ZM119.532 24.3953H122.509V27.3721H119.532V24.3953ZM119.532 27.3721H122.509V30.3488H119.532V27.3721ZM116.556 27.3721H119.532V30.3488H116.556V27.3721ZM119.532 30.3488H122.509V33.3256H119.532V30.3488ZM122.509 24.3953H125.486V27.3721H122.509V24.3953ZM125.486 27.3721H128.463V30.3488H125.486V27.3721ZM125.486 30.3488H128.463V33.3256H125.486V30.3488ZM125.486 33.3256H128.463V36.3023H125.486V33.3256ZM122.509 33.3256H125.486V36.3023H122.509V33.3256ZM122.509 30.3488H125.486V33.3256H122.509V30.3488ZM122.509 27.3721H125.486V30.3488H122.509V27.3721ZM101.672 33.3256H104.649V36.3023H101.672V33.3256ZM95.7185 66.0698H98.6952V69.0465H95.7185V66.0698ZM92.7417 66.0698H95.7185V69.0465H92.7417V66.0698ZM92.7417 63.093H95.7185V66.0698H92.7417V63.093ZM95.7185 63.093H98.6952V66.0698H95.7185V63.093ZM110.602 63.093H113.579V66.0698H110.602V63.093ZM113.579 63.093H116.556V66.0698H113.579V63.093ZM116.556 63.093H119.532V66.0698H116.556V63.093ZM119.532 63.093H122.509V66.0698H119.532V63.093ZM110.602 72.0233H113.579V75H110.602V72.0233ZM110.602 69.0465H113.579V72.0233H110.602V69.0465ZM113.579 69.0465H116.556V72.0233H113.579V69.0465ZM116.556 30.3488H119.532V33.3256H116.556V30.3488ZM119.532 33.3256H122.509V36.3023H119.532V33.3256ZM110.602 30.3488H113.579V33.3256H110.602V30.3488ZM107.625 27.3721H110.602V30.3488H107.625V27.3721ZM110.602 24.3953H113.579V27.3721H110.602V24.3953ZM135.617 36.3023H138.594V39.2791H135.617V36.3023ZM138.594 36.3023H141.57V39.2791H138.594V36.3023ZM138.594 39.2791H141.57V42.2558H138.594V39.2791ZM141.57 36.3023H144.547V39.2791H141.57V36.3023ZM132.64 36.3023H135.617V39.2791H132.64V36.3023ZM132.64 39.2791H135.617V42.2558H132.64V39.2791ZM132.64 45.2326H135.617V48.2093H132.64V45.2326ZM132.64 48.2093H135.617V51.186H132.64V48.2093ZM132.64 51.186H135.617V54.1628H132.64V51.186ZM132.64 54.1628H135.617V57.1395H132.64V54.1628ZM132.64 57.1395H135.617V60.1163H132.64V57.1395ZM132.64 60.1163H135.617V63.093H132.64V60.1163ZM135.617 60.1163H138.594V63.093H135.617V60.1163ZM138.594 60.1163H141.57V63.093H138.594V60.1163ZM138.594 57.1395H141.57V60.1163H138.594V57.1395ZM141.57 57.1395H144.547V60.1163H141.57V57.1395ZM141.57 54.1628H144.547V57.1395H141.57V54.1628ZM141.57 48.2093H144.547V51.186H141.57V48.2093ZM141.57 45.2326H144.547V48.2093H141.57V45.2326ZM141.57 42.2558H144.547V45.2326H141.57V42.2558ZM141.57 39.2791H144.547V42.2558H141.57V39.2791ZM138.594 42.2558H141.57V45.2326H138.594V42.2558ZM138.594 45.2326H141.57V48.2093H138.594V45.2326ZM138.594 48.2093H141.57V51.186H138.594V48.2093ZM138.594 51.186H141.57V54.1628H138.594V51.186ZM138.594 54.1628H141.57V57.1395H138.594V54.1628ZM141.57 51.186H144.547V54.1628H141.57V51.186ZM135.617 51.186H138.594V54.1628H135.617V51.186ZM135.617 48.2093H138.594V51.186H135.617V48.2093ZM135.617 45.2326H138.594V48.2093H135.617V45.2326ZM135.617 42.2558H138.594V45.2326H135.617V42.2558ZM135.617 39.2791H138.594V42.2558H135.617V39.2791ZM132.64 42.2558H135.617V45.2326H132.64V42.2558ZM135.617 54.1628H138.594V57.1395H135.617V54.1628ZM135.617 57.1395H138.594V60.1163H135.617V57.1395ZM129.663 66.0698H132.64V69.0465H129.663V66.0698ZM126.687 66.0698H129.663V69.0465H126.687V66.0698ZM126.687 63.093H129.663V66.0698H126.687V63.093ZM129.663 63.093H132.64V66.0698H129.663V63.093ZM132.64 63.093H135.617V66.0698H132.64V63.093ZM132.64 66.0698H135.617V69.0465H132.64V66.0698ZM135.617 66.0698H138.594V69.0465H135.617V66.0698ZM138.594 66.0698H141.57V69.0465H138.594V66.0698ZM141.57 66.0698H144.547V69.0465H141.57V66.0698ZM141.57 63.093H144.547V66.0698H141.57V63.093ZM141.57 60.1163H144.547V63.093H141.57V60.1163ZM138.594 63.093H141.57V66.0698H138.594V63.093ZM135.617 63.093H138.594V66.0698H135.617V63.093ZM138.594 69.0465H141.57V72.0233H138.594V69.0465ZM138.594 72.0233H141.57V75H138.594V72.0233ZM141.57 72.0233H144.547V75H141.57V72.0233ZM141.57 69.0465H144.547V72.0233H141.57V69.0465ZM144.547 66.0698H147.524V69.0465H144.547V66.0698ZM144.547 63.093H147.524V66.0698H144.547V63.093ZM147.524 63.093H150.501V66.0698H147.524V63.093ZM147.524 66.0698H150.501V69.0465H147.524V66.0698ZM147.524 69.0465H150.501V72.0233H147.524V69.0465ZM147.524 72.0233H150.501V75H147.524V72.0233ZM144.547 72.0233H147.524V75H144.547V72.0233ZM144.547 69.0465H147.524V72.0233H144.547V69.0465ZM150.501 63.093H153.477V66.0698H150.501V63.093ZM153.477 63.093H156.454V66.0698H153.477V63.093ZM153.477 66.0698H156.454V69.0465H153.477V66.0698ZM150.501 66.0698H153.477V69.0465H150.501V66.0698ZM156.454 63.093H159.431V66.0698H156.454V63.093ZM159.431 63.093H162.408V66.0698H159.431V63.093ZM156.454 66.0698H159.431V69.0465H156.454V66.0698ZM156.454 60.1163H159.431V63.093H156.454V60.1163ZM156.454 57.1395H159.431V60.1163H156.454V57.1395ZM159.431 57.1395H162.408V60.1163H159.431V57.1395ZM159.431 60.1163H162.408V63.093H159.431V60.1163ZM162.408 57.1395H165.384V60.1163H162.408V57.1395ZM165.384 54.1628H168.361V57.1395H165.384V54.1628ZM165.384 51.186H168.361V54.1628H165.384V51.186ZM165.384 48.2093H168.361V51.186H165.384V48.2093ZM162.408 48.2093H165.384V51.186H162.408V48.2093ZM159.431 48.2093H162.408V51.186H159.431V48.2093ZM159.431 51.186H162.408V54.1628H159.431V51.186ZM156.454 51.186H159.431V54.1628H156.454V51.186ZM156.454 54.1628H159.431V57.1395H156.454V54.1628ZM159.431 54.1628H162.408V57.1395H159.431V54.1628ZM162.408 54.1628H165.384V57.1395H162.408V54.1628ZM162.408 51.186H165.384V54.1628H162.408V51.186ZM156.454 48.2093H159.431V51.186H156.454V48.2093ZM156.454 45.2326H159.431V48.2093H156.454V45.2326ZM159.431 45.2326H162.408V48.2093H159.431V45.2326ZM159.431 42.2558H162.408V45.2326H159.431V42.2558ZM162.408 42.2558H165.384V45.2326H162.408V42.2558ZM165.384 42.2558H168.361V45.2326H165.384V42.2558ZM165.384 45.2326H168.361V48.2093H165.384V45.2326ZM162.408 45.2326H165.384V48.2093H162.408V45.2326ZM156.454 42.2558H159.431V45.2326H156.454V42.2558ZM156.454 39.2791H159.431V42.2558H156.454V39.2791ZM159.431 39.2791H162.408V42.2558H159.431V39.2791ZM159.431 36.3023H162.408V39.2791H159.431V36.3023ZM162.408 36.3023H165.384V39.2791H162.408V36.3023ZM165.384 36.3023H168.361V39.2791H165.384V36.3023ZM165.384 39.2791H168.361V42.2558H165.384V39.2791ZM162.408 39.2791H165.384V42.2558H162.408V39.2791ZM156.454 36.3023H159.431V39.2791H156.454V36.3023ZM144.547 24.3953H147.524V27.3721H144.547V24.3953ZM144.547 27.3721H147.524V30.3488H144.547V27.3721ZM147.524 27.3721H150.501V30.3488H147.524V27.3721ZM147.524 24.3953H150.501V27.3721H147.524V24.3953ZM141.57 30.3488H144.547V33.3256H141.57V30.3488ZM138.594 30.3488H141.57V33.3256H138.594V30.3488ZM141.57 33.3256H144.547V36.3023H141.57V33.3256ZM138.594 33.3256H141.57V36.3023H138.594V33.3256ZM150.501 30.3488H153.477V33.3256H150.501V30.3488ZM153.477 33.3256H156.454V36.3023H153.477V33.3256ZM153.477 30.3488H156.454V33.3256H153.477V30.3488ZM150.501 24.3953H153.477V27.3721H150.501V24.3953ZM153.477 24.3953H156.454V27.3721H153.477V24.3953ZM153.477 27.3721H156.454V30.3488H153.477V27.3721ZM150.501 27.3721H153.477V30.3488H150.501V27.3721ZM156.454 24.3953H159.431V27.3721H156.454V24.3953ZM159.431 24.3953H162.408V27.3721H159.431V24.3953ZM159.431 27.3721H162.408V30.3488H159.431V27.3721ZM156.454 27.3721H159.431V30.3488H156.454V27.3721ZM168.361 33.3256H171.338V36.3023H168.361V33.3256ZM168.361 30.3488H171.338V33.3256H168.361V30.3488ZM171.338 30.3488H174.315V33.3256H171.338V30.3488ZM171.338 33.3256H174.315V36.3023H171.338V33.3256ZM165.384 30.3488H168.361V33.3256H165.384V30.3488ZM162.408 30.3488H165.384V33.3256H162.408V30.3488ZM159.431 30.3488H162.408V33.3256H159.431V30.3488ZM156.454 30.3488H159.431V33.3256H156.454V30.3488ZM159.431 33.3256H162.408V36.3023H159.431V33.3256ZM162.408 33.3256H165.384V36.3023H162.408V33.3256ZM165.384 33.3256H168.361V36.3023H165.384V33.3256ZM156.454 33.3256H159.431V36.3023H156.454V33.3256ZM135.617 69.0465H138.594V72.0233H135.617V69.0465ZM162.408 27.3721H165.384V30.3488H162.408V27.3721ZM135.617 33.3256H138.594V36.3023H135.617V33.3256ZM150.501 69.0465H153.477V72.0233H150.501V69.0465ZM162.408 60.1163H165.384V63.093H162.408V60.1163ZM165.384 57.1395H168.361V60.1163H165.384V57.1395ZM153.477 69.0465H156.454V72.0233H153.477V69.0465ZM150.501 72.0233H153.477V75H150.501V72.0233ZM141.57 27.3721H144.547V30.3488H141.57V27.3721ZM181.562 72.0233H184.539V75H181.562V72.0233ZM184.539 72.0233H187.515V75H184.539V72.0233ZM178.585 69.0465H181.562V72.0233H178.585V69.0465ZM181.562 69.0465H184.539V72.0233H181.562V69.0465ZM184.539 69.0465H187.515V72.0233H184.539V69.0465ZM187.515 69.0465H190.492V72.0233H187.515V69.0465ZM175.608 66.0698H178.585V69.0465H175.608V66.0698ZM178.585 66.0698H181.562V69.0465H178.585V66.0698ZM178.585 63.093H181.562V66.0698H178.585V63.093ZM181.562 63.093H184.539V66.0698H181.562V63.093ZM181.562 66.0698H184.539V69.0465H181.562V66.0698ZM184.539 66.0698H187.515V69.0465H184.539V66.0698ZM187.515 66.0698H190.492V69.0465H187.515V66.0698ZM187.515 63.093H190.492V66.0698H187.515V63.093ZM190.492 66.0698H193.469V69.0465H190.492V66.0698ZM184.539 63.093H187.515V66.0698H184.539V63.093ZM181.562 60.1163H184.539V63.093H181.562V60.1163ZM184.539 60.1163H187.515V63.093H184.539V60.1163ZM187.515 60.1163H190.492V63.093H187.515V60.1163ZM187.515 57.1395H190.492V60.1163H187.515V57.1395ZM184.539 57.1395H187.515V60.1163H184.539V57.1395ZM181.562 57.1395H184.539V60.1163H181.562V57.1395ZM181.562 54.1628H184.539V57.1395H181.562V54.1628ZM181.562 51.186H184.539V54.1628H181.562V51.186ZM181.562 48.2093H184.539V51.186H181.562V48.2093ZM181.562 45.2326H184.539V48.2093H181.562V45.2326ZM181.562 42.2558H184.539V45.2326H181.562V42.2558ZM184.539 42.2558H187.515V45.2326H184.539V42.2558ZM187.515 42.2558H190.492V45.2326H187.515V42.2558ZM187.515 45.2326H190.492V48.2093H187.515V45.2326ZM187.515 48.2093H190.492V51.186H187.515V48.2093ZM187.515 51.186H190.492V54.1628H187.515V51.186ZM184.539 51.186H187.515V54.1628H184.539V51.186ZM184.539 54.1628H187.515V57.1395H184.539V54.1628ZM184.539 48.2093H187.515V51.186H184.539V48.2093ZM184.539 45.2326H187.515V48.2093H184.539V45.2326ZM187.515 54.1628H190.492V57.1395H187.515V54.1628ZM187.515 39.2791H190.492V42.2558H187.515V39.2791ZM187.515 36.3023H190.492V39.2791H187.515V36.3023ZM187.515 33.3256H190.492V36.3023H187.515V33.3256ZM187.515 30.3488H190.492V33.3256H187.515V30.3488ZM187.515 27.3721H190.492V30.3488H187.515V27.3721ZM187.515 24.3953H190.492V27.3721H187.515V24.3953ZM187.515 18.4419H190.492V21.4186H187.515V18.4419ZM187.515 15.4651H190.492V18.4419H187.515V15.4651ZM187.515 12.4884H190.492V15.4651H187.515V12.4884ZM187.515 9.51163H190.492V12.4884H187.515V9.51163ZM187.515 6.53488H190.492V9.51163H187.515V6.53488ZM187.515 3.55814H190.492V6.53488H187.515V3.55814ZM187.515 0.581398H190.492V3.55814H187.515V0.581398ZM181.562 6.53488H184.539V9.51163H181.562V6.53488ZM181.562 9.51163H184.539V12.4884H181.562V9.51163ZM181.562 12.4884H184.539V15.4651H181.562V12.4884ZM181.562 15.4651H184.539V18.4419H181.562V15.4651ZM181.562 18.4419H184.539V21.4186H181.562V18.4419ZM181.562 24.3953H184.539V27.3721H181.562V24.3953ZM181.562 27.3721H184.539V30.3488H181.562V27.3721ZM184.539 30.3488H187.515V33.3256H184.539V30.3488ZM184.539 33.3256H187.515V36.3023H184.539V33.3256ZM184.539 36.3023H187.515V39.2791H184.539V36.3023ZM184.539 39.2791H187.515V42.2558H184.539V39.2791ZM181.562 39.2791H184.539V42.2558H181.562V39.2791ZM181.562 36.3023H184.539V39.2791H181.562V36.3023ZM181.562 33.3256H184.539V36.3023H181.562V33.3256ZM181.562 30.3488H184.539V33.3256H181.562V30.3488ZM184.539 27.3721H187.515V30.3488H184.539V27.3721ZM184.539 24.3953H187.515V27.3721H184.539V24.3953ZM184.539 18.4419H187.515V21.4186H184.539V18.4419ZM184.539 15.4651H187.515V18.4419H184.539V15.4651ZM184.539 12.4884H187.515V15.4651H184.539V12.4884ZM184.539 9.51163H187.515V12.4884H184.539V9.51163ZM184.539 6.53488H187.515V9.51163H184.539V6.53488ZM184.539 3.55814H187.515V6.53488H184.539V3.55814ZM178.585 60.1163H181.562V63.093H178.585V60.1163ZM178.585 57.1395H181.562V60.1163H178.585V57.1395ZM178.585 54.1628H181.562V57.1395H178.585V54.1628ZM178.585 51.186H181.562V54.1628H178.585V51.186ZM178.585 48.2093H181.562V51.186H178.585V48.2093ZM178.585 45.2326H181.562V48.2093H178.585V45.2326ZM178.585 42.2558H181.562V45.2326H178.585V42.2558ZM178.585 39.2791H181.562V42.2558H178.585V39.2791ZM178.585 36.3023H181.562V39.2791H178.585V36.3023ZM178.585 33.3256H181.562V36.3023H178.585V33.3256ZM178.585 27.3721H181.562V30.3488H178.585V27.3721ZM178.585 18.4419H181.562V21.4186H178.585V18.4419ZM178.585 15.4651H181.562V18.4419H178.585V15.4651ZM178.585 12.4884H181.562V15.4651H178.585V12.4884ZM178.585 24.3953H181.562V27.3721H178.585V24.3953ZM178.585 30.3488H181.562V33.3256H178.585V30.3488ZM178.585 9.51163H181.562V12.4884H178.585V9.51163ZM178.585 21.4186H181.562V24.3953H178.585V21.4186ZM181.562 21.4186H184.539V24.3953H181.562V21.4186ZM184.539 21.4186H187.515V24.3953H184.539V21.4186ZM187.515 21.4186H190.492V24.3953H187.515V21.4186ZM193.469 63.093H196.446V66.0698H193.469V63.093ZM172.632 63.093H175.608V66.0698H172.632V63.093ZM175.608 63.093H178.585V66.0698H175.608V63.093ZM190.492 63.093H193.469V66.0698H190.492V63.093ZM178.585 72.0233H181.562V75H178.585V72.0233ZM172.632 66.0698H175.608V69.0465H172.632V66.0698ZM203.632 69.0465H206.609V72.0233H203.632V69.0465ZM203.632 66.0698H206.609V69.0465H203.632V66.0698ZM203.632 63.093H206.609V66.0698H203.632V63.093ZM203.632 60.1163H206.609V63.093H203.632V60.1163ZM203.632 57.1395H206.609V60.1163H203.632V57.1395ZM203.632 54.1628H206.609V57.1395H203.632V54.1628ZM203.632 51.186H206.609V54.1628H203.632V51.186ZM203.632 48.2093H206.609V51.186H203.632V48.2093ZM203.632 45.2326H206.609V48.2093H203.632V45.2326ZM203.632 42.2558H206.609V45.2326H203.632V42.2558ZM206.609 42.2558H209.585V45.2326H206.609V42.2558ZM209.585 42.2558H212.562V45.2326H209.585V42.2558ZM200.655 42.2558H203.632V45.2326H200.655V42.2558ZM200.655 45.2326H203.632V48.2093H200.655V45.2326ZM200.655 48.2093H203.632V51.186H200.655V48.2093ZM200.655 51.186H203.632V54.1628H200.655V51.186ZM200.655 54.1628H203.632V57.1395H200.655V54.1628ZM200.655 57.1395H203.632V60.1163H200.655V57.1395ZM200.655 60.1163H203.632V63.093H200.655V60.1163ZM200.655 63.093H203.632V66.0698H200.655V63.093ZM200.655 66.0698H203.632V69.0465H200.655V66.0698ZM206.609 66.0698H209.585V69.0465H206.609V66.0698ZM209.585 66.0698H212.562V69.0465H209.585V66.0698ZM209.585 63.093H212.562V66.0698H209.585V63.093ZM209.585 60.1163H212.562V63.093H209.585V60.1163ZM209.585 57.1395H212.562V60.1163H209.585V57.1395ZM209.585 54.1628H212.562V57.1395H209.585V54.1628ZM209.585 51.186H212.562V54.1628H209.585V51.186ZM209.585 48.2093H212.562V51.186H209.585V48.2093ZM209.585 45.2326H212.562V48.2093H209.585V45.2326ZM206.609 45.2326H209.585V48.2093H206.609V45.2326ZM206.609 48.2093H209.585V51.186H206.609V48.2093ZM206.609 51.186H209.585V54.1628H206.609V51.186ZM206.609 54.1628H209.585V57.1395H206.609V54.1628ZM206.609 57.1395H209.585V60.1163H206.609V57.1395ZM206.609 60.1163H209.585V63.093H206.609V60.1163ZM206.609 63.093H209.585V66.0698H206.609V63.093ZM206.609 69.0465H209.585V72.0233H206.609V69.0465ZM209.585 69.0465H212.562V72.0233H209.585V69.0465ZM209.585 72.0233H212.562V75H209.585V72.0233ZM206.609 72.0233H209.585V75H206.609V72.0233ZM212.562 66.0698H215.539V69.0465H212.562V66.0698ZM215.539 66.0698H218.516V69.0465H215.539V66.0698ZM218.516 66.0698H221.492V69.0465H218.516V66.0698ZM209.585 39.2791H212.562V42.2558H209.585V39.2791ZM209.585 36.3023H212.562V39.2791H209.585V36.3023ZM209.585 33.3256H212.562V36.3023H209.585V33.3256ZM209.585 30.3488H212.562V33.3256H209.585V30.3488ZM200.655 36.3023H203.632V39.2791H200.655V36.3023ZM200.655 39.2791H203.632V42.2558H200.655V39.2791ZM203.632 39.2791H206.609V42.2558H203.632V39.2791ZM203.632 36.3023H206.609V39.2791H203.632V36.3023ZM206.609 36.3023H209.585V39.2791H206.609V36.3023ZM206.609 33.3256H209.585V36.3023H206.609V33.3256ZM206.609 30.3488H209.585V33.3256H206.609V30.3488ZM206.609 39.2791H209.585V42.2558H206.609V39.2791ZM215.539 24.3953H218.516V27.3721H215.539V24.3953ZM215.539 27.3721H218.516V30.3488H215.539V27.3721ZM212.562 27.3721H215.539V30.3488H212.562V27.3721ZM218.516 24.3953H221.492V27.3721H218.516V24.3953ZM221.492 24.3953H224.469V27.3721H221.492V24.3953ZM221.492 27.3721H224.469V30.3488H221.492V27.3721ZM218.516 27.3721H221.492V30.3488H218.516V27.3721ZM221.492 30.3488H224.469V33.3256H221.492V30.3488ZM227.446 30.3488H230.423V33.3256H227.446V30.3488ZM227.446 33.3256H230.423V36.3023H227.446V33.3256ZM224.469 33.3256H227.446V36.3023H224.469V33.3256ZM224.469 30.3488H227.446V33.3256H224.469V30.3488ZM203.632 33.3256H206.609V36.3023H203.632V33.3256ZM197.678 66.0698H200.655V69.0465H197.678V66.0698ZM194.702 66.0698H197.678V69.0465H194.702V66.0698ZM194.702 63.093H197.678V66.0698H194.702V63.093ZM197.678 63.093H200.655V66.0698H197.678V63.093ZM212.562 63.093H215.539V66.0698H212.562V63.093ZM215.539 63.093H218.516V66.0698H215.539V63.093ZM218.516 63.093H221.492V66.0698H218.516V63.093ZM221.492 63.093H224.469V66.0698H221.492V63.093ZM212.562 72.0233H215.539V75H212.562V72.0233ZM212.562 69.0465H215.539V72.0233H212.562V69.0465ZM215.539 69.0465H218.516V72.0233H215.539V69.0465ZM218.516 30.3488H221.492V33.3256H218.516V30.3488ZM221.492 33.3256H224.469V36.3023H221.492V33.3256ZM227.446 36.3023H230.423V39.2791H227.446V36.3023ZM224.469 36.3023H227.446V39.2791H224.469V36.3023ZM227.446 39.2791H230.423V42.2558H227.446V39.2791ZM224.469 24.3953H227.446V27.3721H224.469V24.3953ZM227.446 27.3721H230.423V30.3488H227.446V27.3721ZM224.469 27.3721H227.446V30.3488H224.469V27.3721ZM230.423 30.3488H233.399V33.3256H230.423V30.3488ZM230.423 33.3256H233.399V36.3023H230.423V33.3256ZM230.423 36.3023H233.399V39.2791H230.423V36.3023ZM221.492 42.2558H224.469V45.2326H221.492V42.2558ZM218.516 42.2558H221.492V45.2326H218.516V42.2558ZM215.539 42.2558H218.516V45.2326H215.539V42.2558ZM212.562 42.2558H215.539V45.2326H212.562V42.2558ZM212.562 45.2326H215.539V48.2093H212.562V45.2326ZM215.539 45.2326H218.516V48.2093H215.539V45.2326ZM218.516 45.2326H221.492V48.2093H218.516V45.2326ZM221.492 45.2326H224.469V48.2093H221.492V45.2326ZM224.469 42.2558H227.446V45.2326H224.469V42.2558ZM224.469 45.2326H227.446V48.2093H224.469V45.2326ZM230.423 39.2791H233.399V42.2558H230.423V39.2791ZM212.562 30.3488H215.539V33.3256H212.562V30.3488ZM209.585 27.3721H212.562V30.3488H209.585V27.3721ZM212.562 24.3953H215.539V27.3721H212.562V24.3953Z" fill="white"/>
</svg>
